<svg xmlns="http://www.w3.org/2000/svg" width="73" height="73" viewBox="0 0 73 73"><path clip-rule="evenodd" fill="none" stroke="#fff" stroke-width="3" stroke-miterlimit="10" d="M36.5 6.778c16.433 0 29.753 13.307 29.753 29.722S52.933 66.223 36.5 66.223 6.748 52.915 6.748 36.5 20.068 6.778 36.5 6.778z"/><path fill-rule="evenodd" clip-rule="evenodd" fill="#fff" d="M49.425 34.92l-6.833-3.894c-1.523-.87-4.018-2.29-5.547-3.16l-7.083-3.895c-1.522-.87-3.02-.17-3.02 1.557v21.948c0 1.72 1.498 2.425 3.02 1.555l6.958-3.896c1.528-.87 4.086-2.29 5.608-3.16l6.864-3.895c1.523-.87 1.555-2.29.033-3.16z"/></svg>